{
    "asset" : {
        "generator" : "Khronos glTF Blender I/O v1.8.19",
        "version" : "2.0"
    },
    "scene" : 0,
    "scenes" : [
        {
            "name" : "Scene",
            "nodes" : [
                1
            ]
        }
    ],
    "nodes" : [
        {
            "mesh" : 0,
            "name" : "Cube",
            "rotation" : [
                0.7068552374839783,
                0.0012036062544211745,
                0.7073566913604736,
                -0.0008864880655892193
            ],
            "scale" : [
                -0.3060496747493744,
                -0.02527647837996483,
                -1.7467154264450073
            ],
            "translation" : [
                0.044326648116111755,
                0.00582429813221097,
                -0.9459975957870483
            ]
        },
        {
            "children" : [
                0
            ],
            "mesh" : 1,
            "name" : "KeyboardBase",
            "scale" : [
                -1,
                1,
                1
            ]
        }
    ],
    "materials" : [
        {
            "doubleSided" : true,
            "name" : "Material.004",
            "pbrMetallicRoughness" : {
                "baseColorFactor" : [
                    0.6884002089500427,
                    0.6884002089500427,
                    0.6884002089500427,
                    1
                ],
                "metallicFactor" : 0.41666701436042786,
                "roughnessFactor" : 0.7129629850387573
            }
        },
        {
            "doubleSided" : true,
            "name" : "Material",
            "pbrMetallicRoughness" : {
                "baseColorFactor" : [
                    0.6992921233177185,
                    0.49163758754730225,
                    0.7690643072128296,
                    1
                ],
                "metallicFactor" : 0.5231481194496155,
                "roughnessFactor" : 0.7240740656852722
            }
        }
    ],
    "meshes" : [
        {
            "name" : "Cube.012",
            "primitives" : [
                {
                    "attributes" : {
                        "POSITION" : 0,
                        "NORMAL" : 1,
                        "TEXCOORD_0" : 2
                    },
                    "indices" : 3,
                    "material" : 0
                }
            ]
        },
        {
            "name" : "Cube",
            "primitives" : [
                {
                    "attributes" : {
                        "POSITION" : 4,
                        "NORMAL" : 5,
                        "TEXCOORD_0" : 6
                    },
                    "indices" : 7,
                    "material" : 1
                }
            ]
        }
    ],
    "accessors" : [
        {
            "bufferView" : 0,
            "componentType" : 5126,
            "count" : 24,
            "max" : [
                1,
                1,
                1
            ],
            "min" : [
                -1,
                -1,
                -1
            ],
            "type" : "VEC3"
        },
        {
            "bufferView" : 1,
            "componentType" : 5126,
            "count" : 24,
            "type" : "VEC3"
        },
        {
            "bufferView" : 2,
            "componentType" : 5126,
            "count" : 24,
            "type" : "VEC2"
        },
        {
            "bufferView" : 3,
            "componentType" : 5123,
            "count" : 36,
            "type" : "SCALAR"
        },
        {
            "bufferView" : 4,
            "componentType" : 5126,
            "count" : 76,
            "max" : [
                1.9967998266220093,
                0.039845481514930725,
                0.38070258498191833
            ],
            "min" : [
                -2.826789379119873,
                -0.2608218789100647,
                -1.3570417165756226
            ],
            "type" : "VEC3"
        },
        {
            "bufferView" : 5,
            "componentType" : 5126,
            "count" : 76,
            "type" : "VEC3"
        },
        {
            "bufferView" : 6,
            "componentType" : 5126,
            "count" : 76,
            "type" : "VEC2"
        },
        {
            "bufferView" : 7,
            "componentType" : 5123,
            "count" : 132,
            "type" : "SCALAR"
        }
    ],
    "bufferViews" : [
        {
            "buffer" : 0,
            "byteLength" : 288,
            "byteOffset" : 0
        },
        {
            "buffer" : 0,
            "byteLength" : 288,
            "byteOffset" : 288
        },
        {
            "buffer" : 0,
            "byteLength" : 192,
            "byteOffset" : 576
        },
        {
            "buffer" : 0,
            "byteLength" : 72,
            "byteOffset" : 768
        },
        {
            "buffer" : 0,
            "byteLength" : 912,
            "byteOffset" : 840
        },
        {
            "buffer" : 0,
            "byteLength" : 912,
            "byteOffset" : 1752
        },
        {
            "buffer" : 0,
            "byteLength" : 608,
            "byteOffset" : 2664
        },
        {
            "buffer" : 0,
            "byteLength" : 264,
            "byteOffset" : 3272
        }
    ],
    "buffers" : [
        {
            "byteLength" : 3536,
            "uri" : "data:application/octet-stream;base64,"
        }
    ]
}
