{
    "asset" : {
        "generator" : "Khronos glTF Blender I/O v3.2.43",
        "version" : "2.0"
    },
    "scene" : 0,
    "scenes" : [
        {
            "name" : "Scene",
            "nodes" : [
                0
            ]
        }
    ],
    "nodes" : [
        {
            "mesh" : 0,
            "name" : "CasioReverse"
        }
    ],
    "materials" : [
        {
            "alphaMode" : "BLEND",
            "doubleSided" : true,
            "name" : "CasioLogo",
            "pbrMetallicRoughness" : {
                "baseColorTexture" : {
                    "index" : 0
                },
                "metallicFactor" : 0,
                "roughnessFactor" : 0.5
            }
        },
        {
            "doubleSided" : true,
            "name" : "Material",
            "pbrMetallicRoughness" : {
                "baseColorFactor" : [
                    0.7681508660316467,
                    0.28314825892448425,
                    0.6653873920440674,
                    1
                ],
                "metallicFactor" : 0.313203364610672,
                "roughnessFactor" : 0.42573150992393494
            }
        },
        {
            "doubleSided" : true,
            "name" : "Material.004",
            "pbrMetallicRoughness" : {
                "baseColorTexture" : {
                    "index" : 1
                },
                "metallicFactor" : 0.41666701436042786,
                "roughnessFactor" : 0.7129629850387573
            }
        },
        {
            "doubleSided" : true,
            "name" : "Material.002",
            "pbrMetallicRoughness" : {
                "baseColorFactor" : [
                    0.7690643072128296,
                    0.3365933299064636,
                    0.37919002771377563,
                    1
                ],
                "metallicFactor" : 0.313203364610672,
                "roughnessFactor" : 0.42573150992393494
            }
        },
        {
            "doubleSided" : true,
            "name" : "Material.001",
            "pbrMetallicRoughness" : {
                "baseColorFactor" : [
                    0.23623819649219513,
                    0.23623819649219513,
                    0.23623819649219513,
                    1
                ],
                "metallicFactor" : 0.41666701436042786,
                "roughnessFactor" : 0.7455211281776428
            }
        },
        {
            "doubleSided" : true,
            "name" : "Material.003",
            "pbrMetallicRoughness" : {
                "baseColorFactor" : [
                    0.19211073219776154,
                    0.3398222029209137,
                    0.7690643072128296,
                    1
                ],
                "metallicFactor" : 0.313203364610672,
                "roughnessFactor" : 0.42573150992393494
            }
        },
        {
            "doubleSided" : true,
            "name" : "Material.005",
            "pbrMetallicRoughness" : {
                "baseColorFactor" : [
                    0.27460968494415283,
                    0.7690643072128296,
                    0.6707151532173157,
                    1
                ],
                "metallicFactor" : 0.313203364610672,
                "roughnessFactor" : 0.42573150992393494
            }
        },
        {
            "doubleSided" : true,
            "name" : "Material.006",
            "pbrMetallicRoughness" : {
                "baseColorFactor" : [
                    0.7690643072128296,
                    0.6615921854972839,
                    0.23238232731819153,
                    1
                ],
                "metallicFactor" : 0.313203364610672,
                "roughnessFactor" : 0.42573150992393494
            }
        },
        {
            "doubleSided" : true,
            "name" : "Material.007",
            "pbrMetallicRoughness" : {
                "baseColorFactor" : [
                    0.24107523262500763,
                    0.3982183039188385,
                    0.7690643072128296,
                    1
                ],
                "metallicFactor" : 0.313203364610672,
                "roughnessFactor" : 0.42573150992393494
            }
        },
        {
            "alphaMode" : "BLEND",
            "doubleSided" : true,
            "name" : "CasioSpeaker",
            "pbrMetallicRoughness" : {
                "baseColorTexture" : {
                    "index" : 2
                },
                "metallicFactor" : 0
            }
        }
    ],
    "meshes" : [
        {
            "name" : "CasioLogo.001",
            "primitives" : [
                {
                    "attributes" : {
                        "POSITION" : 0,
                        "NORMAL" : 1,
                        "TEXCOORD_0" : 2
                    },
                    "indices" : 3,
                    "material" : 0
                },
                {
                    "attributes" : {
                        "POSITION" : 4,
                        "NORMAL" : 5,
                        "TEXCOORD_0" : 6
                    },
                    "indices" : 7,
                    "material" : 1
                },
                {
                    "attributes" : {
                        "POSITION" : 8,
                        "NORMAL" : 9,
                        "TEXCOORD_0" : 10
                    },
                    "indices" : 11,
                    "material" : 2
                },
                {
                    "attributes" : {
                        "POSITION" : 12,
                        "NORMAL" : 13,
                        "TEXCOORD_0" : 14
                    },
                    "indices" : 15,
                    "material" : 3
                },
                {
                    "attributes" : {
                        "POSITION" : 16,
                        "NORMAL" : 17,
                        "TEXCOORD_0" : 18
                    },
                    "indices" : 19,
                    "material" : 4
                },
                {
                    "attributes" : {
                        "POSITION" : 20,
                        "NORMAL" : 21,
                        "TEXCOORD_0" : 22
                    },
                    "indices" : 23,
                    "material" : 5
                },
                {
                    "attributes" : {
                        "POSITION" : 24,
                        "NORMAL" : 25,
                        "TEXCOORD_0" : 26
                    },
                    "indices" : 27,
                    "material" : 6
                },
                {
                    "attributes" : {
                        "POSITION" : 28,
                        "NORMAL" : 29,
                        "TEXCOORD_0" : 30
                    },
                    "indices" : 31,
                    "material" : 7
                },
                {
                    "attributes" : {
                        "POSITION" : 32,
                        "NORMAL" : 33,
                        "TEXCOORD_0" : 34
                    },
                    "indices" : 35,
                    "material" : 8
                },
                {
                    "attributes" : {
                        "POSITION" : 36,
                        "NORMAL" : 37,
                        "TEXCOORD_0" : 38
                    },
                    "indices" : 3,
                    "material" : 9
                }
            ]
        }
    ],
    "textures" : [
        {
            "sampler" : 0,
            "source" : 0
        },
        {
            "sampler" : 1,
            "source" : 1
        },
        {
            "sampler" : 0,
            "source" : 2
        }
    ],
    "images" : [
        {
            "bufferView" : 4,
            "mimeType" : "image/png",
            "name" : "CasioLogo"
        },
        {
            "bufferView" : 13,
            "mimeType" : "image/png",
            "name" : "CasioControls"
        },
        {
            "bufferView" : 41,
            "mimeType" : "image/png",
            "name" : "CasioSpeaker"
        }
    ],
    "accessors" : [
        {
            "bufferView" : 0,
            "componentType" : 5126,
            "count" : 4,
            "max" : [
                2.4890682697296143,
                0.05191156640648842,
                0.5247363448143005
            ],
            "min" : [
                1.3752622604370117,
                0.05191156640648842,
                -0.9752636551856995
            ],
            "type" : "VEC3"
        },
        {
            "bufferView" : 1,
            "componentType" : 5126,
            "count" : 4,
            "type" : "VEC3"
        },
        {
            "bufferView" : 2,
            "componentType" : 5126,
            "count" : 4,
            "type" : "VEC2"
        },
        {
            "bufferView" : 3,
            "componentType" : 5123,
            "count" : 6,
            "type" : "SCALAR"
        },
        {
            "bufferView" : 5,
            "componentType" : 5126,
            "count" : 76,
            "max" : [
                2.486635208129883,
                0.03984551131725311,
                0.6745879650115967
            ],
            "min" : [
                -2.336954116821289,
                -0.26082199811935425,
                -1.0631568431854248
            ],
            "type" : "VEC3"
        },
        {
            "bufferView" : 6,
            "componentType" : 5126,
            "count" : 76,
            "type" : "VEC3"
        },
        {
            "bufferView" : 7,
            "componentType" : 5126,
            "count" : 76,
            "type" : "VEC2"
        },
        {
            "bufferView" : 8,
            "componentType" : 5123,
            "count" : 132,
            "type" : "SCALAR"
        },
        {
            "bufferView" : 9,
            "componentType" : 5126,
            "count" : 28,
            "max" : [
                1.3561605215072632,
                0.041544295847415924,
                -0.3446670174598694
            ],
            "min" : [
                -2.1378393173217773,
                -0.030785460025072098,
                -0.9618173241615295
            ],
            "type" : "VEC3"
        },
        {
            "bufferView" : 10,
            "componentType" : 5126,
            "count" : 28,
            "type" : "VEC3"
        },
        {
            "bufferView" : 11,
            "componentType" : 5126,
            "count" : 28,
            "type" : "VEC2"
        },
        {
            "bufferView" : 12,
            "componentType" : 5123,
            "count" : 42,
            "type" : "SCALAR"
        },
        {
            "bufferView" : 14,
            "componentType" : 5126,
            "count" : 120,
            "max" : [
                0.3438378572463989,
                0.05797448754310608,
                -0.5221061706542969
            ],
            "min" : [
                -2.056847095489502,
                0.009788032621145248,
                -0.5782496929168701
            ],
            "type" : "VEC3"
        },
        {
            "bufferView" : 15,
            "componentType" : 5126,
            "count" : 120,
            "type" : "VEC3"
        },
        {
            "bufferView" : 16,
            "componentType" : 5126,
            "count" : 120,
            "type" : "VEC2"
        },
        {
            "bufferView" : 17,
            "componentType" : 5123,
            "count" : 180,
            "type" : "SCALAR"
        },
        {
            "bufferView" : 18,
            "componentType" : 5126,
            "count" : 360,
            "max" : [
                0.34340155124664307,
                0.05797448754310608,
                -0.5231143236160278
            ],
            "min" : [
                -1.5104631185531616,
                0.009788032621145248,
                -0.9214646816253662
            ],
            "type" : "VEC3"
        },
        {
            "bufferView" : 19,
            "componentType" : 5126,
            "count" : 360,
            "type" : "VEC3"
        },
        {
            "bufferView" : 20,
            "componentType" : 5126,
            "count" : 360,
            "type" : "VEC2"
        },
        {
            "bufferView" : 21,
            "componentType" : 5123,
            "count" : 540,
            "type" : "SCALAR"
        },
        {
            "bufferView" : 22,
            "componentType" : 5126,
            "count" : 96,
            "max" : [
                -0.8597093820571899,
                0.05797448754310608,
                -0.5193213224411011
            ],
            "min" : [
                -1.0161865949630737,
                0.009788032621145248,
                -0.8283750414848328
            ],
            "type" : "VEC3"
        },
        {
            "bufferView" : 23,
            "componentType" : 5126,
            "count" : 96,
            "type" : "VEC3"
        },
        {
            "bufferView" : 24,
            "componentType" : 5126,
            "count" : 96,
            "type" : "VEC2"
        },
        {
            "bufferView" : 25,
            "componentType" : 5123,
            "count" : 144,
            "type" : "SCALAR"
        },
        {
            "bufferView" : 26,
            "componentType" : 5126,
            "count" : 24,
            "max" : [
                -0.5601469278335571,
                0.05797448754310608,
                -0.527878999710083
            ],
            "min" : [
                -0.7161029577255249,
                0.009788032621145248,
                -0.5786547660827637
            ],
            "type" : "VEC3"
        },
        {
            "bufferView" : 27,
            "componentType" : 5126,
            "count" : 24,
            "type" : "VEC3"
        },
        {
            "bufferView" : 28,
            "componentType" : 5126,
            "count" : 24,
            "type" : "VEC2"
        },
        {
            "bufferView" : 29,
            "componentType" : 5123,
            "count" : 36,
            "type" : "SCALAR"
        },
        {
            "bufferView" : 30,
            "componentType" : 5126,
            "count" : 48,
            "max" : [
                0.6498748064041138,
                0.05797448754310608,
                -0.5310635566711426
            ],
            "min" : [
                0.49391865730285645,
                0.009788032621145248,
                -0.6680704951286316
            ],
            "type" : "VEC3"
        },
        {
            "bufferView" : 31,
            "componentType" : 5126,
            "count" : 48,
            "type" : "VEC3"
        },
        {
            "bufferView" : 32,
            "componentType" : 5126,
            "count" : 48,
            "type" : "VEC2"
        },
        {
            "bufferView" : 33,
            "componentType" : 5123,
            "count" : 72,
            "type" : "SCALAR"
        },
        {
            "bufferView" : 34,
            "componentType" : 5126,
            "count" : 72,
            "max" : [
                1.2796766757965088,
                0.05797448754310608,
                -0.6448687314987183
            ],
            "min" : [
                0.8376891613006592,
                0.009788032621145248,
                -0.8834476470947266
            ],
            "type" : "VEC3"
        },
        {
            "bufferView" : 35,
            "componentType" : 5126,
            "count" : 72,
            "type" : "VEC3"
        },
        {
            "bufferView" : 36,
            "componentType" : 5126,
            "count" : 72,
            "type" : "VEC2"
        },
        {
            "bufferView" : 37,
            "componentType" : 5123,
            "count" : 108,
            "type" : "SCALAR"
        },
        {
            "bufferView" : 38,
            "componentType" : 5126,
            "count" : 4,
            "max" : [
                2.4872610569000244,
                0.03070218488574028,
                0.671283483505249
            ],
            "min" : [
                1.3734550476074219,
                0.03070218488574028,
                -1.0287166833877563
            ],
            "type" : "VEC3"
        },
        {
            "bufferView" : 39,
            "componentType" : 5126,
            "count" : 4,
            "type" : "VEC3"
        },
        {
            "bufferView" : 40,
            "componentType" : 5126,
            "count" : 4,
            "type" : "VEC2"
        }
    ],
    "bufferViews" : [
        {
            "buffer" : 0,
            "byteLength" : 48,
            "byteOffset" : 0
        },
        {
            "buffer" : 0,
            "byteLength" : 48,
            "byteOffset" : 48
        },
        {
            "buffer" : 0,
            "byteLength" : 32,
            "byteOffset" : 96
        },
        {
            "buffer" : 0,
            "byteLength" : 12,
            "byteOffset" : 128
        },
        {
            "buffer" : 0,
            "byteLength" : 9618,
            "byteOffset" : 140
        },
        {
            "buffer" : 0,
            "byteLength" : 912,
            "byteOffset" : 9760
        },
        {
            "buffer" : 0,
            "byteLength" : 912,
            "byteOffset" : 10672
        },
        {
            "buffer" : 0,
            "byteLength" : 608,
            "byteOffset" : 11584
        },
        {
            "buffer" : 0,
            "byteLength" : 264,
            "byteOffset" : 12192
        },
        {
            "buffer" : 0,
            "byteLength" : 336,
            "byteOffset" : 12456
        },
        {
            "buffer" : 0,
            "byteLength" : 336,
            "byteOffset" : 12792
        },
        {
            "buffer" : 0,
            "byteLength" : 224,
            "byteOffset" : 13128
        },
        {
            "buffer" : 0,
            "byteLength" : 84,
            "byteOffset" : 13352
        },
        {
            "buffer" : 0,
            "byteLength" : 388421,
            "byteOffset" : 13436
        },
        {
            "buffer" : 0,
            "byteLength" : 1440,
            "byteOffset" : 401860
        },
        {
            "buffer" : 0,
            "byteLength" : 1440,
            "byteOffset" : 403300
        },
        {
            "buffer" : 0,
            "byteLength" : 960,
            "byteOffset" : 404740
        },
        {
            "buffer" : 0,
            "byteLength" : 360,
            "byteOffset" : 405700
        },
        {
            "buffer" : 0,
            "byteLength" : 4320,
            "byteOffset" : 406060
        },
        {
            "buffer" : 0,
            "byteLength" : 4320,
            "byteOffset" : 410380
        },
        {
            "buffer" : 0,
            "byteLength" : 2880,
            "byteOffset" : 414700
        },
        {
            "buffer" : 0,
            "byteLength" : 1080,
            "byteOffset" : 417580
        },
        {
            "buffer" : 0,
            "byteLength" : 1152,
            "byteOffset" : 418660
        },
        {
            "buffer" : 0,
            "byteLength" : 1152,
            "byteOffset" : 419812
        },
        {
            "buffer" : 0,
            "byteLength" : 768,
            "byteOffset" : 420964
        },
        {
            "buffer" : 0,
            "byteLength" : 288,
            "byteOffset" : 421732
        },
        {
            "buffer" : 0,
            "byteLength" : 288,
            "byteOffset" : 422020
        },
        {
            "buffer" : 0,
            "byteLength" : 288,
            "byteOffset" : 422308
        },
        {
            "buffer" : 0,
            "byteLength" : 192,
            "byteOffset" : 422596
        },
        {
            "buffer" : 0,
            "byteLength" : 72,
            "byteOffset" : 422788
        },
        {
            "buffer" : 0,
            "byteLength" : 576,
            "byteOffset" : 422860
        },
        {
            "buffer" : 0,
            "byteLength" : 576,
            "byteOffset" : 423436
        },
        {
            "buffer" : 0,
            "byteLength" : 384,
            "byteOffset" : 424012
        },
        {
            "buffer" : 0,
            "byteLength" : 144,
            "byteOffset" : 424396
        },
        {
            "buffer" : 0,
            "byteLength" : 864,
            "byteOffset" : 424540
        },
        {
            "buffer" : 0,
            "byteLength" : 864,
            "byteOffset" : 425404
        },
        {
            "buffer" : 0,
            "byteLength" : 576,
            "byteOffset" : 426268
        },
        {
            "buffer" : 0,
            "byteLength" : 216,
            "byteOffset" : 426844
        },
        {
            "buffer" : 0,
            "byteLength" : 48,
            "byteOffset" : 427060
        },
        {
            "buffer" : 0,
            "byteLength" : 48,
            "byteOffset" : 427108
        },
        {
            "buffer" : 0,
            "byteLength" : 32,
            "byteOffset" : 427156
        },
        {
            "buffer" : 0,
            "byteLength" : 9564,
            "byteOffset" : 427188
        }
    ],
    "samplers" : [
        {
            "magFilter" : 9729,
            "minFilter" : 9987,
            "wrapS" : 33071,
            "wrapT" : 33071
        },
        {
            "magFilter" : 9729,
            "minFilter" : 9987
        }
    ],
    "buffers" : [
        {
            "byteLength" : 436752,
            "uri" : "data:application/octet-stream;base64,"
        }
    ]
}
