{
    "asset" : {
        "generator" : "Khronos glTF Blender I/O v1.8.19",
        "version" : "2.0"
    },
    "scene" : 0,
    "scenes" : [
        {
            "name" : "Scene",
            "nodes" : [
                0,
                1
            ]
        }
    ],
    "nodes" : [
        {
            "mesh" : 0,
            "name" : "panel",
            "translation" : [
                0.0878816545009613,
                0,
                0
            ]
        },
        {
            "mesh" : 1,
            "name" : "KeyboardBase"
        }
    ],
    "materials" : [
        {
            "doubleSided" : true,
            "name" : "Material.004",
            "pbrMetallicRoughness" : {
                "baseColorFactor" : [
                    0.6884002089500427,
                    0.6884002089500427,
                    0.6884002089500427,
                    1
                ],
                "metallicFactor" : 0.41666701436042786,
                "roughnessFactor" : 0.7129629850387573
            }
        },
        {
            "doubleSided" : true,
            "name" : "Material",
            "pbrMetallicRoughness" : {
                "baseColorFactor" : [
                    0.7690643072128296,
                    0.2852758765220642,
                    0.6643638014793396,
                    1
                ],
                "metallicFactor" : 0.313203364610672,
                "roughnessFactor" : 0.42573150992393494
            }
        }
    ],
    "meshes" : [
        {
            "name" : "Cube.012",
            "primitives" : [
                {
                    "attributes" : {
                        "POSITION" : 0,
                        "NORMAL" : 1,
                        "TEXCOORD_0" : 2
                    },
                    "indices" : 3,
                    "material" : 0
                }
            ]
        },
        {
            "name" : "Cube",
            "primitives" : [
                {
                    "attributes" : {
                        "POSITION" : 4,
                        "NORMAL" : 5,
                        "TEXCOORD_0" : 6
                    },
                    "indices" : 7,
                    "material" : 1
                }
            ]
        }
    ],
    "accessors" : [
        {
            "bufferView" : 0,
            "componentType" : 5126,
            "count" : 28,
            "max" : [
                1.7469998598098755,
                0.04752309247851372,
                -0.6361461281776428
            ],
            "min" : [
                -1.7469998598098755,
                -0.024806661531329155,
                -1.2532963752746582
            ],
            "type" : "VEC3"
        },
        {
            "bufferView" : 1,
            "componentType" : 5126,
            "count" : 28,
            "type" : "VEC3"
        },
        {
            "bufferView" : 2,
            "componentType" : 5126,
            "count" : 28,
            "type" : "VEC2"
        },
        {
            "bufferView" : 3,
            "componentType" : 5123,
            "count" : 42,
            "type" : "SCALAR"
        },
        {
            "bufferView" : 4,
            "componentType" : 5126,
            "count" : 76,
            "max" : [
                2.0411267280578613,
                0.03984551131725311,
                0.38070276379585266
            ],
            "min" : [
                -2.7824625968933105,
                -0.26082199811935425,
                -1.3570419549942017
            ],
            "type" : "VEC3"
        },
        {
            "bufferView" : 5,
            "componentType" : 5126,
            "count" : 76,
            "type" : "VEC3"
        },
        {
            "bufferView" : 6,
            "componentType" : 5126,
            "count" : 76,
            "type" : "VEC2"
        },
        {
            "bufferView" : 7,
            "componentType" : 5123,
            "count" : 132,
            "type" : "SCALAR"
        }
    ],
    "bufferViews" : [
        {
            "buffer" : 0,
            "byteLength" : 336,
            "byteOffset" : 0
        },
        {
            "buffer" : 0,
            "byteLength" : 336,
            "byteOffset" : 336
        },
        {
            "buffer" : 0,
            "byteLength" : 224,
            "byteOffset" : 672
        },
        {
            "buffer" : 0,
            "byteLength" : 84,
            "byteOffset" : 896
        },
        {
            "buffer" : 0,
            "byteLength" : 912,
            "byteOffset" : 980
        },
        {
            "buffer" : 0,
            "byteLength" : 912,
            "byteOffset" : 1892
        },
        {
            "buffer" : 0,
            "byteLength" : 608,
            "byteOffset" : 2804
        },
        {
            "buffer" : 0,
            "byteLength" : 264,
            "byteOffset" : 3412
        }
    ],
    "buffers" : [
        {
            "byteLength" : 3676,
            "uri" : "data:application/octet-stream;base64,"
        }
    ]
}
