{
    "asset" : {
        "generator" : "Khronos glTF Blender I/O v1.3.48",
        "version" : "2.0"
    },
    "scene" : 0,
    "scenes" : [
        {
            "name" : "Scene",
            "nodes" : [
                1
            ]
        }
    ],
    "nodes" : [
        {
            "mesh" : 0,
            "name" : "panel",
            "rotation" : [
                0.5010355710983276,
                -0.500456690788269,
                -0.49918752908706665,
                0.49931779503822327
            ],
            "scale" : [
                -0.3060496747493744,
                -0.02527647837996483,
                -1.7467153072357178
            ],
            "translation" : [
                -0.044326648116111755,
                0.9459975957870483,
                -0.0058242566883563995
            ]
        },
        {
            "children" : [
                0
            ],
            "mesh" : 1,
            "name" : "KeyboardBase"
        }
    ],
    "materials" : [
        {
            "doubleSided" : true,
            "emissiveFactor" : [
                0,
                0,
                0
            ],
            "name" : "Material.004",
            "pbrMetallicRoughness" : {
                "baseColorFactor" : [
                    0.6884002089500427,
                    0.6884002089500427,
                    0.6884002089500427,
                    1
                ],
                "metallicFactor" : 0.41666701436042786,
                "roughnessFactor" : 0.7129629850387573
            }
        },
        {
            "doubleSided" : true,
            "emissiveFactor" : [
                0,
                0,
                0
            ],
            "name" : "Material",
            "pbrMetallicRoughness" : {
                "baseColorFactor" : [
                    0.7690643072128296,
                    0.2852758765220642,
                    0.6643638014793396,
                    1
                ],
                "metallicFactor" : 0.313203364610672,
                "roughnessFactor" : 0.42573150992393494
            }
        }
    ],
    "meshes" : [
        {
            "name" : "Cube.012",
            "primitives" : [
                {
                    "attributes" : {
                        "POSITION" : 0,
                        "NORMAL" : 1,
                        "TEXCOORD_0" : 2
                    },
                    "indices" : 3,
                    "material" : 0
                }
            ]
        },
        {
            "name" : "Cube",
            "primitives" : [
                {
                    "attributes" : {
                        "POSITION" : 4,
                        "NORMAL" : 5,
                        "TEXCOORD_0" : 6
                    },
                    "indices" : 7,
                    "material" : 1
                }
            ]
        }
    ],
    "accessors" : [
        {
            "bufferView" : 0,
            "componentType" : 5126,
            "count" : 28,
            "max" : [
                1,
                1.45113205909729,
                1
            ],
            "min" : [
                -1.008484125137329,
                -1,
                -1
            ],
            "type" : "VEC3"
        },
        {
            "bufferView" : 1,
            "componentType" : 5126,
            "count" : 28,
            "type" : "VEC3"
        },
        {
            "bufferView" : 2,
            "componentType" : 5126,
            "count" : 28,
            "type" : "VEC2"
        },
        {
            "bufferView" : 3,
            "componentType" : 5123,
            "count" : 42,
            "type" : "SCALAR"
        },
        {
            "bufferView" : 4,
            "componentType" : 5126,
            "count" : 76,
            "max" : [
                2.826789379119873,
                1.3570417165756226,
                0.2608219385147095
            ],
            "min" : [
                -1.9967998266220093,
                -0.38070258498191833,
                -0.03984549641609192
            ],
            "type" : "VEC3"
        },
        {
            "bufferView" : 5,
            "componentType" : 5126,
            "count" : 76,
            "type" : "VEC3"
        },
        {
            "bufferView" : 6,
            "componentType" : 5126,
            "count" : 76,
            "type" : "VEC2"
        },
        {
            "bufferView" : 7,
            "componentType" : 5123,
            "count" : 132,
            "type" : "SCALAR"
        }
    ],
    "bufferViews" : [
        {
            "buffer" : 0,
            "byteLength" : 336,
            "byteOffset" : 0
        },
        {
            "buffer" : 0,
            "byteLength" : 336,
            "byteOffset" : 336
        },
        {
            "buffer" : 0,
            "byteLength" : 224,
            "byteOffset" : 672
        },
        {
            "buffer" : 0,
            "byteLength" : 84,
            "byteOffset" : 896
        },
        {
            "buffer" : 0,
            "byteLength" : 912,
            "byteOffset" : 980
        },
        {
            "buffer" : 0,
            "byteLength" : 912,
            "byteOffset" : 1892
        },
        {
            "buffer" : 0,
            "byteLength" : 608,
            "byteOffset" : 2804
        },
        {
            "buffer" : 0,
            "byteLength" : 264,
            "byteOffset" : 3412
        }
    ],
    "buffers" : [
        {
            "byteLength" : 3676,
            "uri" : "data:application/octet-stream;base64,"
        }
    ]
}
