{
    "asset" : {
        "generator" : "Khronos glTF Blender I/O v1.8.19",
        "version" : "2.0"
    },
    "scene" : 0,
    "scenes" : [
        {
            "name" : "Scene",
            "nodes" : [
                1
            ]
        }
    ],
    "nodes" : [
        {
            "mesh" : 0,
            "name" : "Cube",
            "rotation" : [
                -1,
                0,
                8.76075864653103e-05,
                2.7760277589550242e-05
            ],
            "scale" : [
                -0.35306689143180847,
                -0.1769600808620453,
                -0.7245758771896362
            ],
            "translation" : [
                -0.5285372734069824,
                0.80625319480896,
                -0.19052228331565857
            ]
        },
        {
            "children" : [
                0
            ],
            "mesh" : 1,
            "name" : "KeyboardBase",
            "rotation" : [
                0.707692563533783,
                0,
                -0.7065205574035645,
                1.993306142367146e-07
            ],
            "scale" : [
                0.8668320178985596,
                0.14283718168735504,
                2.410673141479492
            ],
            "translation" : [
                -0.110892154276371,
                -0.10926340520381927,
                -0.027635235339403152
            ]
        }
    ],
    "materials" : [
        {
            "doubleSided" : true,
            "name" : "Material.004",
            "pbrMetallicRoughness" : {
                "baseColorFactor" : [
                    0.6884002089500427,
                    0.6884002089500427,
                    0.6884002089500427,
                    1
                ],
                "metallicFactor" : 0.41666701436042786,
                "roughnessFactor" : 0.7129629850387573
            }
        },
        {
            "doubleSided" : true,
            "name" : "Material",
            "pbrMetallicRoughness" : {
                "baseColorFactor" : [
                    0.6992921233177185,
                    0.49163758754730225,
                    0.7690643072128296,
                    1
                ],
                "metallicFactor" : 0.5231481194496155,
                "roughnessFactor" : 0.7240740656852722
            }
        }
    ],
    "meshes" : [
        {
            "name" : "Cube.012",
            "primitives" : [
                {
                    "attributes" : {
                        "POSITION" : 0,
                        "NORMAL" : 1,
                        "TEXCOORD_0" : 2
                    },
                    "indices" : 3,
                    "material" : 0
                }
            ]
        },
        {
            "name" : "Cube",
            "primitives" : [
                {
                    "attributes" : {
                        "POSITION" : 4,
                        "NORMAL" : 5,
                        "TEXCOORD_0" : 6
                    },
                    "indices" : 7,
                    "material" : 1
                }
            ]
        }
    ],
    "accessors" : [
        {
            "bufferView" : 0,
            "componentType" : 5126,
            "count" : 24,
            "max" : [
                1,
                1,
                1
            ],
            "min" : [
                -1,
                -1,
                -1
            ],
            "type" : "VEC3"
        },
        {
            "bufferView" : 1,
            "componentType" : 5126,
            "count" : 24,
            "type" : "VEC3"
        },
        {
            "bufferView" : 2,
            "componentType" : 5126,
            "count" : 24,
            "type" : "VEC2"
        },
        {
            "bufferView" : 3,
            "componentType" : 5123,
            "count" : 36,
            "type" : "SCALAR"
        },
        {
            "bufferView" : 4,
            "componentType" : 5126,
            "count" : 72,
            "max" : [
                0.9999999403953552,
                1,
                0.9999999403953552
            ],
            "min" : [
                -0.9999999403953552,
                -1,
                -0.9999999403953552
            ],
            "type" : "VEC3"
        },
        {
            "bufferView" : 5,
            "componentType" : 5126,
            "count" : 72,
            "type" : "VEC3"
        },
        {
            "bufferView" : 6,
            "componentType" : 5126,
            "count" : 72,
            "type" : "VEC2"
        },
        {
            "bufferView" : 7,
            "componentType" : 5123,
            "count" : 132,
            "type" : "SCALAR"
        }
    ],
    "bufferViews" : [
        {
            "buffer" : 0,
            "byteLength" : 288,
            "byteOffset" : 0
        },
        {
            "buffer" : 0,
            "byteLength" : 288,
            "byteOffset" : 288
        },
        {
            "buffer" : 0,
            "byteLength" : 192,
            "byteOffset" : 576
        },
        {
            "buffer" : 0,
            "byteLength" : 72,
            "byteOffset" : 768
        },
        {
            "buffer" : 0,
            "byteLength" : 864,
            "byteOffset" : 840
        },
        {
            "buffer" : 0,
            "byteLength" : 864,
            "byteOffset" : 1704
        },
        {
            "buffer" : 0,
            "byteLength" : 576,
            "byteOffset" : 2568
        },
        {
            "buffer" : 0,
            "byteLength" : 264,
            "byteOffset" : 3144
        }
    ],
    "buffers" : [
        {
            "byteLength" : 3408,
            "uri" : "data:application/octet-stream;base64,"
        }
    ]
}
