<?xml version="1.0" encoding="utf-8"?>
<!-- Generator: Adobe Illustrator 25.2.0, SVG Export Plug-In . SVG Version: 6.00 Build 0)  -->
<svg version="1.1" xmlns="http://www.w3.org/2000/svg" xmlns:xlink="http://www.w3.org/1999/xlink" x="0px" y="0px"
	 viewBox="0 0 1920 1080" style="enable-background:new 0 0 1920 1080;" xml:space="preserve">
<style type="text/css">
	.st0{fill:#FFFFFF;}
	.st1{fill:none;stroke:#FFFFFF;stroke-width:20;stroke-miterlimit:10;}
</style>
<g id="Layer_2">
</g>
<g id="Layer_3">
</g>
<g id="Layer_1">
	<g>
		<path class="st0" d="M943.67,196c24.54,0,47.69,9.64,65.19,27.14c17.5,17.5,27.14,40.65,27.14,65.19v471.35
			c0,24.54-9.64,47.69-27.14,65.19c-17.5,17.5-40.65,27.14-65.19,27.14H472.33c-24.54,0-47.69-9.64-65.19-27.14
			c-17.5-17.5-27.14-40.65-27.14-65.19V288.33c0-24.54,9.64-47.69,27.14-65.19c17.5-17.5,40.65-27.14,65.19-27.14H943.67
			 M943.67,176H472.33C410.55,176,360,226.55,360,288.33v471.35C360,821.45,410.55,872,472.33,872h471.35
			c61.78,0,112.33-50.55,112.33-112.33V288.33C1056,226.55,1005.45,176,943.67,176L943.67,176z"/>
	</g>
	<path class="st1" d="M372,580c0,0,47.53-22.33,118-123c63-90,249.18-134.93,225-94c-26,44-46,92-36,118s22,56,116,34s108-19,106,0
		s-64,109,26,99c46.11-5.12,100.58-24.35,117-24"/>
</g>
</svg>
